<?xml version="1.0" encoding="utf-8"?>
<!-- Generator: Adobe Illustrator 16.0.0, SVG Export Plug-In . SVG Version: 6.00 Build 0)  -->
<!DOCTYPE svg PUBLIC "-//W3C//DTD SVG 1.1//EN" "http://www.w3.org/Graphics/SVG/1.1/DTD/svg11.dtd">
<svg version="1.1" xmlns="http://www.w3.org/2000/svg" xmlns:xlink="http://www.w3.org/1999/xlink" x="0px" y="0px" width="1068px"
	 height="1068px" viewBox="0 0 1068 1068" enable-background="new 0 0 1068 1068" xml:space="preserve">
<g id="图层_2" display="none">
</g>
<g id="图层_3">
	<path fill-rule="evenodd" clip-rule="evenodd" fill="#272636" d="M684.682,545.437L557.916,676.719V301.372
		c0-16.086-12.606-29.13-28.141-29.13c-15.534,0-28.14,13.044-28.14,29.13v376.193L374.051,545.437
		c-11.2-11.58-29.339-11.58-40.538,0c-11.18,11.599-11.18,30.385,0,41.963l175.595,181.832c9.524,9.863,24.094,11.318,35.126,4.378
		c0.175-0.109,0.346-0.223,0.519-0.335c0.163-0.108,0.328-0.214,0.489-0.325c1.852-1.264,3.548-2.748,5.06-4.416l174.9-181.134
		c11.199-11.578,11.199-30.364,0-41.963C714.021,533.856,695.882,533.856,684.682,545.437z M529.661,77.5
		c-252.697,0-457.553,204.857-457.553,457.554c0,252.696,204.856,457.554,457.553,457.554S987.215,787.75,987.215,535.054
		C987.215,282.357,782.358,77.5,529.661,77.5z M529.661,934.196c-220.449,0-399.143-178.694-399.143-399.143
		c0-220.449,178.694-399.143,399.143-399.143c220.45,0,399.143,178.694,399.143,399.143
		C928.804,755.502,750.111,934.196,529.661,934.196z" style="fill:#fff;"/>
</g>
</svg>
